# xmcd
#
# Track frame offsets: 
#        150
#        13720
#        26169
#        44079
#        56921
#        71037
#        87209
#        106684
#        123333
#        137715
#
# Disc length: 2054 seconds
#
# Revision: 5
# Processed by: cddbd v1.5.2PL0 Copyright (c) Steve Scherf et al.
# Submitted via: ExactAudioCopy v1.3
#
DISCID=8c08040a
DTITLE=Steve Wariner - Laredo
DYEAR=1990
DGENRE=Country
TTITLE0=I Can See Arkansas
TTITLE1=Precious Thing
TTITLE2=Where Fools Are Kings
TTITLE3=L-O-V-E, Love
TTITLE4=She's In Love
TTITLE5=The Domino Theory
TTITLE6=There For Awhile
TTITLE7=I Wanna Go Back
TTITLE8=While I'm Holding You Tonight
TTITLE9=When Times Were Hard
EXTD=more info - MillenniumMusicProjectFormat - SYNTAX=SongTitle{Subtit
EXTD=le}[miscInfo](Lyricist;Composer;Date,Artist,Location,State,Countr
EXTD=y) YEAR: 1990
EXTT0=
EXTT1=
EXTT2=
EXTT3=
EXTT4=
EXTT5=
EXTT6=
EXTT7=
EXTT8=
EXTT9=
PLAYORDER=
